<svg width="150" height="300" xmlns="http://www.w3.org/2000/svg">
  <defs>
    <!-- Bamboo gradient -->
    <linearGradient id="bambooGradient" x1="0%" y1="0%" x2="100%" y2="0%">
      <stop offset="0%" style="stop-color:#4caf50;stop-opacity:0.3" />
      <stop offset="50%" style="stop-color:#66bb6a;stop-opacity:0.2" />
      <stop offset="100%" style="stop-color:#81c784;stop-opacity:0.1" />
    </linearGradient>
    
    <!-- Leaf gradient -->
    <linearGradient id="leafGradient" x1="0%" y1="0%" x2="100%" y2="100%">
      <stop offset="0%" style="stop-color:#2e7d32;stop-opacity:0.3" />
      <stop offset="100%" style="stop-color:#388e3c;stop-opacity:0.1" />
    </linearGradient>
    
    <!-- Node gradient -->
    <linearGradient id="nodeGradient" x1="0%" y1="0%" x2="100%" y2="0%">
      <stop offset="0%" style="stop-color:#1b5e20;stop-opacity:0.4" />
      <stop offset="100%" style="stop-color:#2e7d32;stop-opacity:0.2" />
    </linearGradient>
  </defs>
  
  <!-- Background -->
  <rect width="150" height="300" fill="transparent"/>
  
  <!-- Bamboo stalk 1 -->
  <g>
    <!-- Main stalk -->
    <rect x="30" y="0" width="8" height="300" fill="url(#bambooGradient)" rx="4"/>
    
    <!-- Bamboo nodes -->
    <rect x="28" y="50" width="12" height="3" fill="url(#nodeGradient)" rx="1.5"/>
    <rect x="28" y="120" width="12" height="3" fill="url(#nodeGradient)" rx="1.5"/>
    <rect x="28" y="190" width="12" height="3" fill="url(#nodeGradient)" rx="1.5"/>
    <rect x="28" y="260" width="12" height="3" fill="url(#nodeGradient)" rx="1.5"/>
    
    <!-- Leaves -->
    <ellipse cx="25" cy="80" rx="15" ry="4" fill="url(#leafGradient)" transform="rotate(-30 25 80)"/>
    <ellipse cx="45" cy="150" rx="12" ry="3" fill="url(#leafGradient)" transform="rotate(25 45 150)"/>
    <ellipse cx="20" cy="220" rx="18" ry="4" fill="url(#leafGradient)" transform="rotate(-40 20 220)"/>
  </g>
  
  <!-- Bamboo stalk 2 -->
  <g>
    <rect x="90" y="20" width="6" height="280" fill="url(#bambooGradient)" rx="3"/>
    
    <!-- Nodes -->
    <rect x="88" y="70" width="10" height="2.5" fill="url(#nodeGradient)" rx="1.25"/>
    <rect x="88" y="140" width="10" height="2.5" fill="url(#nodeGradient)" rx="1.25"/>
    <rect x="88" y="210" width="10" height="2.5" fill="url(#nodeGradient)" rx="1.25"/>
    <rect x="88" y="280" width="10" height="2.5" fill="url(#nodeGradient)" rx="1.25"/>
    
    <!-- Leaves -->
    <ellipse cx="105" cy="100" rx="14" ry="3.5" fill="url(#leafGradient)" transform="rotate(35 105 100)"/>
    <ellipse cx="80" cy="170" rx="16" ry="4" fill="url(#leafGradient)" transform="rotate(-25 80 170)"/>
    <ellipse cx="110" cy="240" rx="13" ry="3" fill="url(#leafGradient)" transform="rotate(45 110 240)"/>
  </g>
  
  <!-- Bamboo stalk 3 (partial) -->
  <g>
    <rect x="120" y="0" width="5" height="300" fill="url(#bambooGradient)" rx="2.5"/>
    
    <!-- Nodes -->
    <rect x="118" y="60" width="9" height="2" fill="url(#nodeGradient)" rx="1"/>
    <rect x="118" y="130" width="9" height="2" fill="url(#nodeGradient)" rx="1"/>
    <rect x="118" y="200" width="9" height="2" fill="url(#nodeGradient)" rx="1"/>
    
    <!-- Leaves -->
    <ellipse cx="135" cy="90" rx="12" ry="3" fill="url(#leafGradient)" transform="rotate(20 135 90)"/>
    <ellipse cx="110" cy="160" rx="11" ry="2.5" fill="url(#leafGradient)" transform="rotate(-35 110 160)"/>
  </g>
  
  <!-- Zen stones -->
  <ellipse cx="60" cy="40" rx="4" ry="2" fill="#607d8b" opacity="0.15"/>
  <ellipse cx="75" cy="45" rx="3" ry="1.5" fill="#78909c" opacity="0.12"/>
  <ellipse cx="55" cy="48" rx="2.5" ry="1.2" fill="#90a4ae" opacity="0.1"/>
</svg> 