<svg width="300" height="300" xmlns="http://www.w3.org/2000/svg">
  <defs>
    <!-- Petal gradient -->
    <radialGradient id="petalGradient" cx="50%" cy="30%" r="70%">
      <stop offset="0%" style="stop-color:#fce4ec;stop-opacity:0.8" />
      <stop offset="70%" style="stop-color:#f8bbd9;stop-opacity:0.4" />
      <stop offset="100%" style="stop-color:#e91e63;stop-opacity:0.1" />
    </radialGradient>
    
    <!-- Branch gradient -->
    <linearGradient id="branchGradient" x1="0%" y1="0%" x2="100%" y2="100%">
      <stop offset="0%" style="stop-color:#5d4037;stop-opacity:0.3" />
      <stop offset="100%" style="stop-color:#8d6e63;stop-opacity:0.1" />
    </linearGradient>
    
    <!-- Center gradient -->
    <radialGradient id="centerGradient" cx="50%" cy="50%" r="50%">
      <stop offset="0%" style="stop-color:#ffcdd2;stop-opacity:0.6" />
      <stop offset="100%" style="stop-color:#f06292;stop-opacity:0.2" />
    </radialGradient>
    
    <!-- Falling petal gradient -->
    <linearGradient id="fallingPetalGradient" x1="0%" y1="0%" x2="100%" y2="100%">
      <stop offset="0%" style="stop-color:#f8bbd9;stop-opacity:0.4" />
      <stop offset="100%" style="stop-color:#fce4ec;stop-opacity:0.1" />
    </linearGradient>
  </defs>
  
  <!-- Background -->
  <rect width="300" height="300" fill="transparent"/>
  
  <!-- Branch 1 -->
  <path d="M50 20 Q100 80 150 140 Q200 200 250 260" 
        stroke="url(#branchGradient)" stroke-width="4" fill="none" opacity="0.6"/>
  
  <!-- Branch 2 -->
  <path d="M0 100 Q50 120 100 160 Q150 200 200 250" 
        stroke="url(#branchGradient)" stroke-width="3" fill="none" opacity="0.5"/>
  
  <!-- Sakura flower 1 -->
  <g transform="translate(80, 60)">
    <!-- Petals -->
    <ellipse cx="0" cy="-8" rx="6" ry="12" fill="url(#petalGradient)" transform="rotate(0)"/>
    <ellipse cx="0" cy="-8" rx="6" ry="12" fill="url(#petalGradient)" transform="rotate(72)"/>
    <ellipse cx="0" cy="-8" rx="6" ry="12" fill="url(#petalGradient)" transform="rotate(144)"/>
    <ellipse cx="0" cy="-8" rx="6" ry="12" fill="url(#petalGradient)" transform="rotate(216)"/>
    <ellipse cx="0" cy="-8" rx="6" ry="12" fill="url(#petalGradient)" transform="rotate(288)"/>
    <!-- Center -->
    <circle cx="0" cy="0" r="3" fill="url(#centerGradient)"/>
  </g>
  
  <!-- Sakura flower 2 -->
  <g transform="translate(140, 110)">
    <ellipse cx="0" cy="-7" rx="5" ry="10" fill="url(#petalGradient)" transform="rotate(0)"/>
    <ellipse cx="0" cy="-7" rx="5" ry="10" fill="url(#petalGradient)" transform="rotate(72)"/>
    <ellipse cx="0" cy="-7" rx="5" ry="10" fill="url(#petalGradient)" transform="rotate(144)"/>
    <ellipse cx="0" cy="-7" rx="5" ry="10" fill="url(#petalGradient)" transform="rotate(216)"/>
    <ellipse cx="0" cy="-7" rx="5" ry="10" fill="url(#petalGradient)" transform="rotate(288)"/>
    <circle cx="0" cy="0" r="2.5" fill="url(#centerGradient)"/>
  </g>
  
  <!-- Sakura flower 3 -->
  <g transform="translate(190, 170)">
    <ellipse cx="0" cy="-6" rx="4" ry="8" fill="url(#petalGradient)" transform="rotate(0)"/>
    <ellipse cx="0" cy="-6" rx="4" ry="8" fill="url(#petalGradient)" transform="rotate(72)"/>
    <ellipse cx="0" cy="-6" rx="4" ry="8" fill="url(#petalGradient)" transform="rotate(144)"/>
    <ellipse cx="0" cy="-6" rx="4" ry="8" fill="url(#petalGradient)" transform="rotate(216)"/>
    <ellipse cx="0" cy="-6" rx="4" ry="8" fill="url(#petalGradient)" transform="rotate(288)"/>
    <circle cx="0" cy="0" r="2" fill="url(#centerGradient)"/>
  </g>
  
  <!-- Sakura flower 4 -->
  <g transform="translate(60, 140)">
    <ellipse cx="0" cy="-5" rx="3.5" ry="7" fill="url(#petalGradient)" transform="rotate(0)"/>
    <ellipse cx="0" cy="-5" rx="3.5" ry="7" fill="url(#petalGradient)" transform="rotate(72)"/>
    <ellipse cx="0" cy="-5" rx="3.5" ry="7" fill="url(#petalGradient)" transform="rotate(144)"/>
    <ellipse cx="0" cy="-5" rx="3.5" ry="7" fill="url(#petalGradient)" transform="rotate(216)"/>
    <ellipse cx="0" cy="-5" rx="3.5" ry="7" fill="url(#petalGradient)" transform="rotate(288)"/>
    <circle cx="0" cy="0" r="1.8" fill="url(#centerGradient)"/>
  </g>
  
  <!-- Buds -->
  <circle cx="120" cy="85" r="2" fill="url(#centerGradient)" opacity="0.7"/>
  <circle cx="170" cy="140" r="1.5" fill="url(#centerGradient)" opacity="0.6"/>
  <circle cx="220" cy="200" r="2.5" fill="url(#centerGradient)" opacity="0.7"/>
  
  <!-- Falling petals -->
  <ellipse cx="40" cy="80" rx="3" ry="6" fill="url(#fallingPetalGradient)" transform="rotate(45 40 80)" opacity="0.6"/>
  <ellipse cx="160" cy="50" rx="2.5" ry="5" fill="url(#fallingPetalGradient)" transform="rotate(-30 160 50)" opacity="0.5"/>
  <ellipse cx="220" cy="120" rx="3.5" ry="7" fill="url(#fallingPetalGradient)" transform="rotate(60 220 120)" opacity="0.4"/>
  <ellipse cx="100" cy="200" rx="2" ry="4" fill="url(#fallingPetalGradient)" transform="rotate(-45 100 200)" opacity="0.5"/>
  <ellipse cx="270" cy="180" rx="2.5" ry="5" fill="url(#fallingPetalGradient)" transform="rotate(30 270 180)" opacity="0.4"/>
  <ellipse cx="30" cy="220" rx="3" ry="6" fill="url(#fallingPetalGradient)" transform="rotate(-60 30 220)" opacity="0.3"/>
  
  <!-- Small scattered petals -->
  <ellipse cx="180" cy="80" rx="2" ry="3" fill="url(#fallingPetalGradient)" transform="rotate(20 180 80)" opacity="0.3"/>
  <ellipse cx="80" cy="180" rx="1.5" ry="3" fill="url(#fallingPetalGradient)" transform="rotate(-40 80 180)" opacity="0.25"/>
  <ellipse cx="250" cy="100" rx="1.8" ry="3.5" fill="url(#fallingPetalGradient)" transform="rotate(70 250 100)" opacity="0.3"/>
  <ellipse cx="120" cy="240" rx="2.2" ry="4" fill="url(#fallingPetalGradient)" transform="rotate(-20 120 240)" opacity="0.25"/>
  
  <!-- Leaves -->
  <ellipse cx="110" cy="70" rx="8" ry="3" fill="#4caf50" opacity="0.2" transform="rotate(30 110 70)"/>
  <ellipse cx="155" cy="125" rx="6" ry="2.5" fill="#66bb6a" opacity="0.15" transform="rotate(-45 155 125)"/>
  <ellipse cx="205" cy="185" rx="7" ry="3" fill="#4caf50" opacity="0.18" transform="rotate(60 205 185)"/>
</svg> 